<svg t="1582536112874" class="icon" viewBox="0 0 1024 1024" version="1.1" xmlns="http://www.w3.org/2000/svg" p-id="15407" width="48" height="48"><path d="M511.3 120.2c216.5 0 392 175.5 392 392s-175.5 392-392 392-392-175.5-392-392 175.5-392 392-392m0-56c-247.4 0-448 200.6-448 448s200.6 448 448 448 448-200.6 448-448-200.5-448-448-448z m0 0" fill="#ffffff" p-id="15408"></path><path d="M689.4 651.7L550.5 512.2 690 372.8c9.4-11.2 8.7-27.7-1.7-38-10.4-10.3-27-10.8-38-1.2l-139 138.9L373 334.7c-11-11-28.8-11-39.8 0-11 11-11 28.8 0 39.8L471 512.2 333.3 650c-11 11-11 28.8 0 39.8 11 11 28.8 11 39.8 0L511.3 552l139.4 139.4c10.8 10.8 28.4 10.8 39.2 0 10.8-10.8 10.8-28.4 0-39.2l-0.5-0.5z m0 0" fill="#ffffff" p-id="15409"></path></svg>